{"title":"The Great Gilly Hopkins 2016 WEB-DL XviD MP3-FGT","uid":15979469,"size":1317692680,"categoryP":"video","categoryS":"movies","magnet":"?xt=urn:btih:8646b160643800b1fdfe1831d4458fb413c963e9&amp;dn=The+Great+Gilly+Hopkins+2016+WEB-DL+XviD+MP3-FGT&amp;tr=udp%3A%2F%2Ftracker.leechers-paradise.org%3A6969&amp;tr=udp%3A%2F%2Fzer0day.ch%3A1337&amp;tr=udp%3A%2F%2Fopen.demonii.com%3A1337&amp;tr=udp%3A%2F%2Ftracker.coppersurfer.tk%3A6969&amp;tr=udp%3A%2F%2Fexodus.desync.com%3A6969","seeders":1,"leechers":1,"uploader":"PirateNeon2","files":1,"time":1475880497,"description":"Plot:\tA feisty foster kid's outrageous scheme to be reunited with her birth mother has unintended consequences in The Great Gilly Hopkins| an entertaining film for the\r\nentire family. Gilly Hopkins (Sophie Nélisse) has seen more than her share of foster homes and has outwitted every family she has lived with. In an effort to escape\r\nher new foster mother Maime Trotter's (Kathy Bates) endless loving care| Gilly concocts a plan that she believes will bring her mother running to her rescue. But\r\nwhen the ploy blows up in Gilly's face it threatens to ruin the only chance she's ever had to be part of a real family. Based on the award-winning young-adult novel\r\nby Katherine Paterson (Bridge to Terabithia)| The Great Gilly Hopkins stars Sophie Nélisse| Kathy Bates| Julia Stiles| Bill Cobbs| Billy Magnussen| with Octavia\r\nSpencer and Glenn Close.\r\n\r\nVideo\r\nID                                       : 0\r\nFormat                                   : MPEG-4 Visual\r\nFormat profile                           :   \r\nFormat settings, BVOP                    : No\r\nFormat settings, QPel                    : No\r\nFormat settings, GMC                     : No warppoints\r\nFormat settings, Matrix                  : Default (H.263)\r\nCodec ID                                 : XVID\r\nCodec ID/Hint                            : XviD\r\nDuration                                 : 1h 37mn\r\nBit rate                                 : 1 598 Kbps\r\nWidth                                    : 720 pixels\r\nHeight                                   : 304 pixels\r\nDisplay aspect ratio                     : 2.40:1\r\nFrame rate                               : 23.976 fps\r\nColor space                              : YUV\r\nChroma subsampling                       : 4:2:0\r\nBit depth                                : 8 bits\r\nScan type                                : Progressive\r\nCompression mode                         : Lossy\r\nBits/(Pixel*Frame)                       : 0.305\r\nStream size                              : 1.09 GiB (89%)\r\nWriting library                          : Lavc57.16.101\r\n\r\nAudio\r\nID                                       : 1\r\nFormat                                   : MPEG Audio\r\nFormat version                           : Version 1\r\nFormat profile                           : Layer 3\r\nMode                                     : Joint stereo\r\nMode extension                           : MS Stereo\r\nCodec ID                                 : 55\r\nCodec ID/Hint                            : MP3\r\nDuration                                 : 1h 37mn\r\nBit rate mode                            : Constant\r\nBit rate                                 : 192 Kbps\r\nChannel(s)                               : 2 channels\r\nSampling rate                            : 48.0 KHz\r\nCompression mode                         : Lossy\r\nStream size                              : 134 MiB (11%)\r\nAlignment                                : Aligned on interleaves\r\nInterleave, duration                     : 24 ms (0.58 video frame)\r\nInterleave, preload duration             : 504 ms\r\nWriting library                          : LAME","torrent":{"xt":"urn:btih:8646b160643800b1fdfe1831d4458fb413c963e9","amp;dn":"The+Great+Gilly+Hopkins+2016+WEB-DL+XviD+MP3-FGT","amp;tr":["udp%3A%2F%2Ftracker.leechers-paradise.org%3A6969","udp%3A%2F%2Fzer0day.ch%3A1337","udp%3A%2F%2Fopen.demonii.com%3A1337","udp%3A%2F%2Ftracker.coppersurfer.tk%3A6969","udp%3A%2F%2Fexodus.desync.com%3A6969"],"infoHash":"8646b160643800b1fdfe1831d4458fb413c963e9","infoHashBuffer":{"type":"Buffer","data":[134,70,177,96,100,56,0,177,253,254,24,49,212,69,143,180,19,201,99,233]},"announce":[],"urlList":[]}}